<svg version="1.1" id="Layer_1" xmlns="http://www.w3.org/2000/svg" xmlns:xlink="http://www.w3.org/1999/xlink" x="0px" y="0px"
	 width="100%" viewBox="0 0 512 512" enable-background="new 0 0 512 512" xml:space="preserve">
<path fill="#020202" opacity="1.000000" stroke="none" 
	d="
M513.000000,181.000000 
	C513.000000,291.973022 513.000000,402.446045 513.000000,512.959534 
	C342.401978,512.959534 171.803925,512.959534 1.102941,512.959534 
	C1.102941,342.443665 1.102941,171.887268 1.102941,1.165426 
	C171.666534,1.165426 342.333252,1.165426 513.000000,1.165426 
	C513.000000,60.862705 513.000000,120.681351 513.000000,181.000000 
M456.886261,423.786926 
	C460.841614,423.786926 464.796967,423.786926 468.985596,423.786926 
	C468.985596,287.698578 468.985596,152.076721 468.985596,16.166231 
	C464.555420,16.166231 460.271393,16.166231 455.062500,16.014931 
	C350.974487,16.014931 246.886459,16.014931 142.918396,16.014931 
	C142.918396,24.190062 142.918396,31.897938 142.918396,39.874416 
	C145.137100,39.874416 146.949081,39.874416 148.761063,39.874416 
	C242.556885,39.874424 336.352722,39.870068 430.148529,39.880466 
	C440.772583,39.881645 445.475220,44.205128 445.479797,54.387985 
	C445.524017,153.181793 445.491089,251.975647 445.551849,350.769440 
	C445.555206,356.233978 443.569763,359.725372 437.283173,360.398773 
	C431.384369,358.545959 430.507172,357.169952 430.506744,349.476807 
	C430.501404,253.322571 430.503235,157.168320 430.503204,61.014084 
	C430.503204,59.064045 430.503174,57.114006 430.503174,55.079094 
	C421.954346,55.079094 413.975189,55.079094 405.075134,54.895336 
	C304.671143,54.895336 204.267136,54.895336 103.764664,54.895336 
	C103.764664,86.299149 103.689507,116.964096 103.828934,147.628067 
	C103.856377,153.663620 103.019783,158.671295 96.206802,159.836334 
	C96.206802,166.543289 96.206802,172.837982 96.206802,179.405319 
	C102.430054,180.251633 103.808548,184.408325 103.799561,189.841141 
	C103.734520,229.173492 103.764664,268.506012 103.764671,307.838470 
	C103.764671,309.605621 103.764671,311.372742 103.764671,313.256348 
	C105.038277,313.145111 105.715790,313.163849 106.356194,313.018768 
	C128.517563,307.998413 149.977737,310.134247 170.825974,319.132904 
	C172.567963,319.884827 174.690018,319.996613 176.636124,319.999512 
	C209.968643,320.049500 243.301254,320.034363 276.633850,320.036774 
	C280.800262,320.037079 284.977173,319.873566 289.130402,320.112762 
	C294.130554,320.400696 297.402130,324.363434 296.466095,328.812195 
	C295.473572,333.529419 292.233521,335.080139 287.648651,335.069336 
	C258.982788,335.001801 230.316681,335.035767 201.650650,335.036102 
	C199.983932,335.036133 198.317215,335.036133 197.156677,335.036133 
	C203.356003,342.901978 209.493393,350.329895 215.166229,358.097046 
	C216.965286,360.560303 218.604248,361.522522 221.594482,361.499146 
	C238.926376,361.363739 256.259857,361.429749 273.592804,361.434387 
	C281.806854,361.436584 285.213806,363.699158 285.147125,369.083160 
	C285.082153,374.332520 281.873505,376.430206 273.868256,376.432831 
	C259.035248,376.437683 244.202225,376.427368 229.369247,376.445190 
	C227.941650,376.446899 226.514236,376.601898 225.098648,376.685059 
	C227.064835,385.555145 228.950623,394.062531 230.914810,402.923553 
	C249.567062,402.923553 268.375397,402.910126 287.183716,402.931366 
	C293.129089,402.938080 296.511841,405.562653 296.658997,410.156250 
	C296.810364,414.882019 293.165253,417.900055 287.096069,417.912933 
	C271.429840,417.946198 255.763443,417.924164 240.097122,417.924194 
	C236.978745,417.924194 233.860382,417.924164 230.431992,417.924164 
	C229.564453,433.973236 224.664169,448.422699 217.163269,462.666779 
	C219.061920,462.666779 220.036499,462.666809 221.011078,462.666809 
	C281.509735,462.666748 342.008392,462.668457 402.507050,462.653137 
	C403.658783,462.652863 404.810425,462.451019 406.864685,462.630249 
	C414.613464,462.630249 422.362213,462.630249 430.503174,462.630249 
	C430.503174,460.193390 430.503174,458.392883 430.503204,456.592407 
	C430.503265,434.627441 430.486389,412.662445 430.513153,390.697510 
	C430.521637,383.714386 431.625458,382.250732 438.707245,380.605621 
	C443.457977,381.343445 445.416260,384.381714 445.486389,388.916046 
	C445.534912,392.055206 445.507385,395.195557 445.508087,398.335388 
	C445.509979,406.698853 445.508759,415.062286 445.508759,423.592621 
	C449.440430,423.592621 452.705444,423.592621 456.886261,423.786926 
M122.172768,497.658783 
	C129.466156,497.369354 136.897064,497.881256 144.030060,496.657135 
	C182.904099,489.985992 213.243073,457.601776 215.568253,416.274506 
	C217.674042,378.846649 195.084229,343.728333 158.689987,330.544556 
	C147.191589,326.379272 135.308121,324.157349 122.107857,325.812927 
	C86.241577,327.850433 54.494717,354.854004 45.574390,391.277313 
	C44.107635,397.266296 42.454044,402.237823 35.003357,401.897095 
	C35.003357,407.881683 34.879372,413.201599 35.104099,418.506744 
	C35.151138,419.617157 36.389927,421.522430 37.238968,421.616089 
	C42.672314,422.215485 44.121784,425.839081 45.126854,430.437164 
	C48.467152,445.718414 55.434090,459.245544 66.261528,470.522308 
	C81.286842,486.171173 99.338890,495.902344 122.172768,497.658783 
z"/>
<path fill="#F8F2F0" opacity="1.000000" stroke="none" 
	d="
M405.962128,462.343201 
	C404.810425,462.451019 403.658783,462.652863 402.507050,462.653137 
	C342.008392,462.668457 281.509735,462.666748 221.011078,462.666809 
	C220.036499,462.666809 219.061920,462.666779 217.163269,462.666779 
	C224.664169,448.422699 229.564453,433.973236 230.431992,417.924164 
	C233.860382,417.924164 236.978745,417.924194 240.097122,417.924194 
	C255.763443,417.924164 271.429840,417.946198 287.096069,417.912933 
	C293.165253,417.900055 296.810364,414.882019 296.658997,410.156250 
	C296.511841,405.562653 293.129089,402.938080 287.183716,402.931366 
	C268.375397,402.910126 249.567062,402.923553 230.914810,402.923553 
	C228.950623,394.062531 227.064835,385.555145 225.098648,376.685059 
	C226.514236,376.601898 227.941650,376.446899 229.369247,376.445190 
	C244.202225,376.427368 259.035248,376.437683 273.868256,376.432831 
	C281.873505,376.430206 285.082153,374.332520 285.147125,369.083160 
	C285.213806,363.699158 281.806854,361.436584 273.592804,361.434387 
	C256.259857,361.429749 238.926376,361.363739 221.594482,361.499146 
	C218.604248,361.522522 216.965286,360.560303 215.166229,358.097046 
	C209.493393,350.329895 203.356003,342.901978 197.156677,335.036133 
	C198.317215,335.036133 199.983932,335.036133 201.650650,335.036102 
	C230.316681,335.035767 258.982788,335.001801 287.648651,335.069336 
	C292.233521,335.080139 295.473572,333.529419 296.466095,328.812195 
	C297.402130,324.363434 294.130554,320.400696 289.130402,320.112762 
	C284.977173,319.873566 280.800262,320.037079 276.633850,320.036774 
	C243.301254,320.034363 209.968643,320.049500 176.636124,319.999512 
	C174.690018,319.996613 172.567963,319.884827 170.825974,319.132904 
	C149.977737,310.134247 128.517563,307.998413 106.356194,313.018768 
	C105.715790,313.163849 105.038277,313.145111 103.764671,313.256348 
	C103.764671,311.372742 103.764671,309.605621 103.764671,307.838470 
	C103.764664,268.506012 103.734520,229.173492 103.799561,189.841141 
	C103.808548,184.408325 102.430054,180.251633 96.206802,179.405319 
	C96.206802,172.837982 96.206802,166.543289 96.206802,159.836334 
	C103.019783,158.671295 103.856377,153.663620 103.828934,147.628067 
	C103.689507,116.964096 103.764664,86.299149 103.764664,54.895336 
	C204.267136,54.895336 304.671143,54.895336 405.537811,55.450798 
	C405.987701,191.451904 405.974915,326.897552 405.962128,462.343201 
M263.209930,152.703979 
	C261.644348,155.445496 260.065155,158.179337 258.515442,160.929794 
	C248.548187,178.619965 259.079376,197.096619 279.416809,197.211838 
	C308.566132,197.376984 337.717804,197.376938 366.867126,197.211365 
	C387.225616,197.095718 397.892456,178.603912 387.809784,160.974136 
	C373.372009,135.729279 358.796204,110.562599 344.146210,85.440155 
	C333.777435,67.659378 312.408752,67.758224 302.019989,85.611099 
	C289.148163,107.731148 276.422455,129.936218 263.209930,152.703979 
M305.627808,394.795013 
	C317.813019,414.983917 338.912903,424.464600 361.760712,420.016876 
	C389.427795,414.631012 407.526733,386.889648 402.004639,358.332550 
	C396.796936,331.401154 369.299164,312.816284 342.424438,317.472290 
	C308.052795,323.427124 287.612579,361.148102 305.627808,394.795013 
M173.500168,223.738068 
	C167.172897,223.744293 160.843460,223.651108 154.519058,223.788986 
	C149.678650,223.894547 146.666565,226.694870 146.483826,230.873199 
	C146.294724,235.197021 149.472153,238.384857 154.380112,238.739792 
	C155.539871,238.823669 156.710358,238.762756 157.875900,238.762772 
	C230.641129,238.763290 303.406342,238.763794 376.171570,238.762421 
	C384.036377,238.762268 387.904297,236.171799 387.768158,231.012161 
	C387.636932,226.036850 384.032806,223.739731 376.311249,223.739456 
	C309.040894,223.737061 241.770523,223.738052 173.500168,223.738068 
M338.500092,278.809723 
	C308.379028,278.809784 278.257965,278.799072 248.136887,278.818817 
	C241.970123,278.822845 238.913071,281.242065 238.817520,286.024231 
	C238.718781,290.967651 242.023926,293.805847 248.248047,293.810425 
	C291.515900,293.842194 334.783752,293.839508 378.051605,293.814056 
	C384.122711,293.810486 387.807434,290.820282 387.772125,286.164795 
	C387.736542,281.471161 384.239594,278.826569 377.941956,278.816620 
	C365.128052,278.796356 352.314056,278.810028 338.500092,278.809723 
M256.238098,99.539360 
	C223.459915,99.539352 190.681747,99.533096 157.903580,99.554695 
	C155.915527,99.556000 153.376572,99.056274 152.062073,100.058914 
	C149.795578,101.787682 146.917023,104.476967 146.851868,106.833870 
	C146.786484,109.199127 149.497253,112.058647 151.668182,113.906235 
	C152.902664,114.956856 155.492706,114.565201 157.472534,114.567070 
	C190.749817,114.598488 224.027161,114.592285 257.304474,114.580467 
	C258.797150,114.579941 260.318665,114.607704 261.776886,114.345230 
	C265.972015,113.590149 268.232971,111.000427 268.080597,106.720123 
	C267.936829,102.680267 265.640350,100.306831 261.641083,99.733681 
	C260.168762,99.522682 258.655731,99.595848 256.238098,99.539360 
M194.500000,155.964920 
	C208.329681,155.964890 222.159439,155.987305 235.989029,155.954285 
	C241.892365,155.940186 245.259995,153.256317 245.379425,148.627914 
	C245.505692,143.735443 242.140076,140.974335 235.898788,140.970505 
	C209.239166,140.954117 182.579529,140.953506 155.919907,140.971222 
	C149.930588,140.975189 146.623016,143.566162 146.491928,148.221725 
	C146.356979,153.014313 149.895798,155.939438 156.009918,155.955200 
	C168.506531,155.987427 181.003296,155.964890 194.500000,155.964920 
M225.755234,182.272385 
	C202.464005,182.260468 179.172760,182.228027 155.881561,182.251053 
	C150.057907,182.256805 146.577240,185.059906 146.458008,189.603378 
	C146.335541,194.270142 149.685287,197.227570 155.487183,197.240311 
	C178.279404,197.290405 201.071915,197.223068 223.864029,197.292664 
	C228.402008,197.306519 231.927734,195.808121 232.776703,191.146210 
	C233.622040,186.504227 231.107361,183.583862 225.755234,182.272385 
M147.920792,290.600739 
	C149.906662,291.660065 151.850067,293.525696 153.886063,293.632874 
	C161.005493,294.007690 168.164948,293.980072 175.293213,293.699585 
	C179.799179,293.522247 182.894958,289.884491 182.695679,285.885071 
	C182.489273,281.743256 179.390457,278.917175 174.632309,278.839233 
	C168.157944,278.733093 161.679810,278.745483 155.204742,278.825043 
	C147.947830,278.914215 145.304504,282.799622 147.920792,290.600739 
M223.321106,293.213654 
	C227.606873,291.547638 229.072968,288.268341 227.972748,284.050171 
	C226.949493,280.127014 223.897736,278.746887 219.988098,278.789795 
	C213.519882,278.860840 207.049545,278.749603 200.581558,278.830566 
	C195.571854,278.893250 192.278961,281.788330 192.152405,286.018890 
	C192.027298,290.200226 195.320175,293.668274 200.170425,293.753052 
	C207.621597,293.883331 215.079788,293.611908 223.321106,293.213654 
z"/>
<path fill="#FD7C43" opacity="1.000000" stroke="none" 
	d="
M121.398567,497.162781 
	C99.338890,495.902344 81.286842,486.171173 66.261528,470.522308 
	C55.434090,459.245544 48.467152,445.718414 45.126854,430.437164 
	C44.121784,425.839081 42.672314,422.215485 37.238968,421.616089 
	C36.389927,421.522430 35.151138,419.617157 35.104099,418.506744 
	C34.879372,413.201599 35.003357,407.881683 35.003357,401.897095 
	C42.454044,402.237823 44.107635,397.266296 45.574390,391.277313 
	C54.494717,354.854004 86.241577,327.850433 122.746582,326.158630 
	C131.076370,331.658173 139.661591,335.864838 146.301208,342.132538 
	C172.751907,367.101624 182.067551,397.822784 174.609802,433.483429 
	C174.126328,435.795227 172.711868,437.912323 171.510925,439.832092 
	C165.581100,417.962830 147.135651,405.104523 124.510368,406.933167 
	C104.851685,408.522034 88.385796,425.408844 86.252586,446.168945 
	C85.580681,452.707886 87.918991,456.627319 92.790314,457.127411 
	C97.815163,457.643311 100.461380,454.674683 101.187080,447.889954 
	C102.268394,437.780640 106.992119,429.892761 116.033600,425.052460 
	C134.097961,415.381775 154.931564,426.715515 157.338074,447.511932 
	C157.870667,452.114349 158.744354,456.106964 164.011444,457.664795 
	C162.357010,460.987854 160.977325,464.137634 159.013672,466.867310 
	C149.274918,480.405334 136.913315,490.760284 121.398567,497.162781 
M100.314697,363.795013 
	C96.774246,367.577179 95.150108,381.075134 98.488358,384.756683 
	C100.189499,386.632812 103.949516,388.301788 106.085785,387.680664 
	C108.463966,386.989136 110.920448,383.869995 111.761246,381.291840 
	C112.743462,378.280060 112.071129,374.710022 112.019684,371.383698 
	C111.906982,364.098633 108.030510,361.313934 100.314697,363.795013 
M155.890045,362.692108 
	C149.513031,362.508240 146.942474,364.794891 146.783829,370.927917 
	C146.702103,374.087036 146.677139,377.254425 146.807144,380.410645 
	C147.008026,385.287903 149.744263,388.115234 154.092743,388.157288 
	C158.387527,388.198822 161.393448,385.386841 161.713348,380.620605 
	C161.946823,377.142151 162.425095,373.460785 161.560974,370.196350 
	C160.850479,367.512115 158.326309,365.307983 155.890045,362.692108 
z"/>
<path fill="#EEE1DC" opacity="1.000000" stroke="none" 
	d="
M438.002808,360.743591 
	C443.569763,359.725372 445.555206,356.233978 445.551849,350.769440 
	C445.491089,251.975647 445.524017,153.181793 445.479797,54.387985 
	C445.475220,44.205128 440.772583,39.881645 430.148529,39.880466 
	C336.352722,39.870068 242.556885,39.874424 148.761063,39.874416 
	C146.949081,39.874416 145.137100,39.874416 142.918396,39.874416 
	C142.918396,31.897938 142.918396,24.190062 142.918396,16.014931 
	C246.886459,16.014931 350.974487,16.014931 455.529388,16.548607 
	C455.987701,152.585724 455.979095,288.089172 455.970490,423.592621 
	C452.705444,423.592621 449.440430,423.592621 445.508759,423.592621 
	C445.508759,415.062286 445.509979,406.698853 445.508087,398.335388 
	C445.507385,395.195557 445.534912,392.055206 445.486389,388.916046 
	C445.416260,384.381714 443.457977,381.343445 438.353302,380.009277 
	C438.000488,373.189850 438.001648,366.966705 438.002808,360.743591 
z"/>
<path fill="#F1E8E4" opacity="1.000000" stroke="none" 
	d="
M437.643005,360.571167 
	C438.001648,366.966705 438.000488,373.189850 438.000153,379.832886 
	C431.625458,382.250732 430.521637,383.714386 430.513153,390.697510 
	C430.486389,412.662445 430.503265,434.627441 430.503204,456.592407 
	C430.503174,458.392883 430.503174,460.193390 430.503174,462.630249 
	C422.362213,462.630249 414.613464,462.630249 406.413391,462.486725 
	C405.974915,326.897552 405.987701,191.451904 405.998291,55.542679 
	C413.975189,55.079094 421.954346,55.079094 430.503174,55.079094 
	C430.503174,57.114006 430.503204,59.064045 430.503204,61.014084 
	C430.503235,157.168320 430.501404,253.322571 430.506744,349.476807 
	C430.507172,357.169952 431.384369,358.545959 437.643005,360.571167 
z"/>
<path fill="#FB6830" opacity="1.000000" stroke="none" 
	d="
M121.785667,497.410767 
	C136.913315,490.760284 149.274918,480.405334 159.013672,466.867310 
	C160.977325,464.137634 162.357010,460.987854 164.400558,457.603882 
	C170.657715,456.270142 172.873123,453.671600 172.505386,447.972809 
	C172.336105,445.349457 171.994156,442.737274 171.730484,440.120026 
	C172.711868,437.912323 174.126328,435.795227 174.609802,433.483429 
	C182.067551,397.822784 172.751907,367.101624 146.301208,342.132538 
	C139.661591,335.864838 131.076370,331.658173 123.181198,326.226562 
	C135.308121,324.157349 147.191589,326.379272 158.689987,330.544556 
	C195.084229,343.728333 217.674042,378.846649 215.568253,416.274506 
	C213.243073,457.601776 182.904099,489.985992 144.030060,496.657135 
	C136.897064,497.881256 129.466156,497.369354 121.785667,497.410767 
z"/>
<path fill="#E1D3CE" opacity="1.000000" stroke="none" 
	d="
M456.428375,423.689758 
	C455.979095,288.089172 455.987701,152.585724 455.991821,16.624256 
	C460.271393,16.166231 464.555420,16.166231 468.985596,16.166231 
	C468.985596,152.076721 468.985596,287.698578 468.985596,423.786926 
	C464.796967,423.786926 460.841614,423.786926 456.428375,423.689758 
z"/>
<path fill="#040403" opacity="1.000000" stroke="none" 
	d="
M263.421753,152.404266 
	C276.422455,129.936218 289.148163,107.731148 302.019989,85.611099 
	C312.408752,67.758224 333.777435,67.659378 344.146210,85.440155 
	C358.796204,110.562599 373.372009,135.729279 387.809784,160.974136 
	C397.892456,178.603912 387.225616,197.095718 366.867126,197.211365 
	C337.717804,197.376938 308.566132,197.376984 279.416809,197.211838 
	C259.079376,197.096619 248.548187,178.619965 258.515442,160.929794 
	C260.065155,158.179337 261.644348,155.445496 263.421753,152.404266 
M311.388397,99.366631 
	C305.311523,109.875099 299.230255,120.381042 293.158936,130.892700 
	C285.839294,143.565552 278.459747,156.204468 271.241974,168.935120 
	C267.632294,175.301865 270.729767,182.033615 277.583405,182.076889 
	C302.386383,182.233551 327.191650,182.031067 352.912903,182.177689 
	C357.404877,182.193237 361.897430,182.261887 366.388702,182.213242 
	C375.670197,182.112732 379.149933,176.059753 374.518646,167.958862 
	C367.590546,155.840378 360.565613,143.777252 353.583923,131.689377 
	C346.020203,118.593849 338.534271,105.452599 330.865845,92.418694 
	C326.824646,85.549919 319.619049,85.604271 315.433014,92.398483 
	C314.135010,94.505257 313.096375,96.771843 311.388397,99.366631 
z"/>
<path fill="#040302" opacity="1.000000" stroke="none" 
	d="
M305.415649,394.491394 
	C287.612579,361.148102 308.052795,323.427124 342.424438,317.472290 
	C369.299164,312.816284 396.796936,331.401154 402.004639,358.332550 
	C407.526733,386.889648 389.427795,414.631012 361.760712,420.016876 
	C338.912903,424.464600 317.813019,414.983917 305.415649,394.491394 
M346.144745,405.812561 
	C356.573822,407.050171 365.942444,404.452271 374.184540,397.947662 
	C387.451935,387.477051 391.822540,368.730560 384.637054,353.324524 
	C377.555115,338.140503 360.799683,329.292908 344.616577,332.399750 
	C343.637878,332.598633 342.651398,332.765442 341.681641,333.001099 
	C324.064270,337.282776 312.536957,353.867767 313.972260,372.855988 
	C315.210724,389.239899 329.363373,403.888489 346.144745,405.812561 
z"/>
<path fill="#060605" opacity="1.000000" stroke="none" 
	d="
M174.000153,223.738068 
	C241.770523,223.738052 309.040894,223.737061 376.311249,223.739456 
	C384.032806,223.739731 387.636932,226.036850 387.768158,231.012161 
	C387.904297,236.171799 384.036377,238.762268 376.171570,238.762421 
	C303.406342,238.763794 230.641129,238.763290 157.875900,238.762772 
	C156.710358,238.762756 155.539871,238.823669 154.380112,238.739792 
	C149.472153,238.384857 146.294724,235.197021 146.483826,230.873199 
	C146.666565,226.694870 149.678650,223.894547 154.519058,223.788986 
	C160.843460,223.651108 167.172897,223.744293 174.000153,223.738068 
z"/>
<path fill="#050505" opacity="1.000000" stroke="none" 
	d="
M339.000122,278.809723 
	C352.314056,278.810028 365.128052,278.796356 377.941956,278.816620 
	C384.239594,278.826569 387.736542,281.471161 387.772125,286.164795 
	C387.807434,290.820282 384.122711,293.810486 378.051605,293.814056 
	C334.783752,293.839508 291.515900,293.842194 248.248047,293.810425 
	C242.023926,293.805847 238.718781,290.967651 238.817520,286.024231 
	C238.913071,281.242065 241.970123,278.822845 248.136887,278.818817 
	C278.257965,278.799072 308.379028,278.809784 339.000122,278.809723 
z"/>
<path fill="#080707" opacity="1.000000" stroke="none" 
	d="
M256.699677,99.539383 
	C258.655731,99.595848 260.168762,99.522682 261.641083,99.733681 
	C265.640350,100.306831 267.936829,102.680267 268.080597,106.720123 
	C268.232971,111.000427 265.972015,113.590149 261.776886,114.345230 
	C260.318665,114.607704 258.797150,114.579941 257.304474,114.580467 
	C224.027161,114.592285 190.749817,114.598488 157.472534,114.567070 
	C155.492706,114.565201 152.902664,114.956856 151.668182,113.906235 
	C149.497253,112.058647 146.786484,109.199127 146.851868,106.833870 
	C146.917023,104.476967 149.795578,101.787682 152.062073,100.058914 
	C153.376572,99.056274 155.915527,99.556000 157.903580,99.554695 
	C190.681747,99.533096 223.459915,99.539352 256.699677,99.539383 
z"/>
<path fill="#020202" opacity="1.000000" stroke="none" 
	d="
M194.000000,155.964920 
	C181.003296,155.964890 168.506531,155.987427 156.009918,155.955200 
	C149.895798,155.939438 146.356979,153.014313 146.491928,148.221725 
	C146.623016,143.566162 149.930588,140.975189 155.919907,140.971222 
	C182.579529,140.953506 209.239166,140.954117 235.898788,140.970505 
	C242.140076,140.974335 245.505692,143.735443 245.379425,148.627914 
	C245.259995,153.256317 241.892365,155.940186 235.989029,155.954285 
	C222.159439,155.987305 208.329681,155.964890 194.000000,155.964920 
z"/>
<path fill="#060606" opacity="1.000000" stroke="none" 
	d="
M226.175247,182.331879 
	C231.107361,183.583862 233.622040,186.504227 232.776703,191.146210 
	C231.927734,195.808121 228.402008,197.306519 223.864029,197.292664 
	C201.071915,197.223068 178.279404,197.290405 155.487183,197.240311 
	C149.685287,197.227570 146.335541,194.270142 146.458008,189.603378 
	C146.577240,185.059906 150.057907,182.256805 155.881561,182.251053 
	C179.172760,182.228027 202.464005,182.260468 226.175247,182.331879 
z"/>
<path fill="#060606" opacity="1.000000" stroke="none" 
	d="
M147.703918,290.291077 
	C145.304504,282.799622 147.947830,278.914215 155.204742,278.825043 
	C161.679810,278.745483 168.157944,278.733093 174.632309,278.839233 
	C179.390457,278.917175 182.489273,281.743256 182.695679,285.885071 
	C182.894958,289.884491 179.799179,293.522247 175.293213,293.699585 
	C168.164948,293.980072 161.005493,294.007690 153.886063,293.632874 
	C151.850067,293.525696 149.906662,291.660065 147.703918,290.291077 
z"/>
<path fill="#060606" opacity="1.000000" stroke="none" 
	d="
M222.928055,293.362305 
	C215.079788,293.611908 207.621597,293.883331 200.170425,293.753052 
	C195.320175,293.668274 192.027298,290.200226 192.152405,286.018890 
	C192.278961,281.788330 195.571854,278.893250 200.581558,278.830566 
	C207.049545,278.749603 213.519882,278.860840 219.988098,278.789795 
	C223.897736,278.746887 226.949493,280.127014 227.972748,284.050171 
	C229.072968,288.268341 227.606873,291.547638 222.928055,293.362305 
z"/>
<path fill="#040201" opacity="1.000000" stroke="none" 
	d="
M171.510925,439.832092 
	C171.994156,442.737274 172.336105,445.349457 172.505386,447.972809 
	C172.873123,453.671600 170.657715,456.270142 164.406052,457.236877 
	C158.744354,456.106964 157.870667,452.114349 157.338074,447.511932 
	C154.931564,426.715515 134.097961,415.381775 116.033600,425.052460 
	C106.992119,429.892761 102.268394,437.780640 101.187080,447.889954 
	C100.461380,454.674683 97.815163,457.643311 92.790314,457.127411 
	C87.918991,456.627319 85.580681,452.707886 86.252586,446.168945 
	C88.385796,425.408844 104.851685,408.522034 124.510368,406.933167 
	C147.135651,405.104523 165.581100,417.962830 171.510925,439.832092 
z"/>
<path fill="#050201" opacity="1.000000" stroke="none" 
	d="
M100.623573,363.576477 
	C108.030510,361.313934 111.906982,364.098633 112.019684,371.383698 
	C112.071129,374.710022 112.743462,378.280060 111.761246,381.291840 
	C110.920448,383.869995 108.463966,386.989136 106.085785,387.680664 
	C103.949516,388.301788 100.189499,386.632812 98.488358,384.756683 
	C95.150108,381.075134 96.774246,367.577179 100.623573,363.576477 
z"/>
<path fill="#070302" opacity="1.000000" stroke="none" 
	d="
M156.248001,362.791565 
	C158.326309,365.307983 160.850479,367.512115 161.560974,370.196350 
	C162.425095,373.460785 161.946823,377.142151 161.713348,380.620605 
	C161.393448,385.386841 158.387527,388.198822 154.092743,388.157288 
	C149.744263,388.115234 147.008026,385.287903 146.807144,380.410645 
	C146.677139,377.254425 146.702103,374.087036 146.783829,370.927917 
	C146.942474,364.794891 149.513031,362.508240 156.248001,362.791565 
z"/>
<path fill="#D6A85D" opacity="1.000000" stroke="none" 
	d="
M351.996033,181.964111 
	C327.191650,182.031067 302.386383,182.233551 277.583405,182.076889 
	C270.729767,182.033615 267.632294,175.301865 271.241974,168.935120 
	C278.459747,156.204468 285.839294,143.565552 293.158936,130.892700 
	C299.230255,120.381042 305.311523,109.875099 311.939392,99.367455 
	C313.992310,102.241699 315.494202,105.115120 316.869202,108.391281 
	C316.512054,119.532211 315.973633,130.281357 316.354736,140.997818 
	C316.418243,142.784302 320.487335,145.786362 322.694977,145.776917 
	C325.164795,145.766342 328.244690,143.431198 329.886383,141.232162 
	C331.170105,139.512543 330.663544,136.456421 331.295746,134.044876 
	C337.027313,142.917679 342.112762,151.944687 347.900452,160.496414 
	C352.465271,167.241211 354.316925,174.101685 351.996033,181.964111 
M321.029755,172.832809 
	C324.663696,173.558945 328.443054,172.775864 329.378784,169.269470 
	C330.322052,165.734772 330.420959,161.182220 328.939972,157.976395 
	C326.641968,153.002045 318.743896,153.984863 316.403290,159.031265 
	C314.267578,163.635895 315.945740,169.470840 321.029755,172.832809 
z"/>
<path fill="#C79A55" opacity="1.000000" stroke="none" 
	d="
M316.996124,107.988541 
	C315.494202,105.115120 313.992310,102.241699 312.214722,99.166771 
	C313.096375,96.771843 314.135010,94.505257 315.433014,92.398483 
	C319.619049,85.604271 326.824646,85.549919 330.865845,92.418694 
	C338.534271,105.452599 346.020203,118.593849 353.583923,131.689377 
	C360.565613,143.777252 367.590546,155.840378 374.518646,167.958862 
	C379.149933,176.059753 375.670197,182.112732 366.388702,182.213242 
	C361.897430,182.261887 357.404877,182.193237 352.454468,182.070892 
	C354.316925,174.101685 352.465271,167.241211 347.900452,160.496414 
	C342.112762,151.944687 337.027313,142.917679 331.196808,133.585327 
	C330.754974,126.961334 330.730957,120.847496 330.764954,114.733994 
	C330.785339,111.066116 330.026886,107.825211 326.443817,105.951881 
	C322.730164,104.010277 319.784973,105.637787 316.996124,107.988541 
z"/>
<path fill="#FA7B42" opacity="1.000000" stroke="none" 
	d="
M345.368408,405.352295 
	C329.363373,403.888489 315.210724,389.239899 313.972260,372.855988 
	C312.536957,353.867767 324.064270,337.282776 341.681641,333.001099 
	C342.651398,332.765442 343.637878,332.598633 345.339294,332.691772 
	C350.710663,338.326904 355.359344,343.670044 359.862366,349.312866 
	C357.093628,352.771820 354.470490,355.931061 351.466309,359.549225 
	C347.593079,355.417877 345.107025,352.496948 342.335693,349.877930 
	C338.825775,346.560883 334.723389,346.532532 331.651581,349.484863 
	C328.401123,352.608917 328.395386,356.832581 331.967926,360.499115 
	C334.704102,363.307281 337.764038,365.800018 341.109772,368.821136 
	C337.503021,372.191406 334.732452,374.583588 332.193024,377.200073 
	C328.514130,380.990662 328.314606,384.975739 331.403931,388.229675 
	C334.541656,391.534607 338.982880,391.399384 342.825989,387.632812 
	C345.505249,385.006927 347.927795,382.119141 350.648590,379.147888 
	C354.310577,382.982910 357.163483,385.970612 359.862366,389.264587 
	C355.913361,395.726318 351.899689,401.683136 345.368408,405.352295 
z"/>
<path fill="#F8672F" opacity="1.000000" stroke="none" 
	d="
M345.756592,405.582428 
	C351.899689,401.683136 355.913361,395.726318 360.200867,389.371643 
	C364.773651,391.519592 368.528961,391.102600 371.194305,387.163177 
	C373.727539,383.418945 372.588135,379.884186 369.442444,376.884094 
	C366.821442,374.384338 364.218048,371.866119 360.881622,368.658905 
	C363.905457,366.001312 366.495575,363.922668 368.853851,361.607849 
	C372.797607,357.736816 373.580475,353.867249 371.090942,350.584930 
	C367.975739,346.477570 364.099335,346.749054 360.007996,349.013184 
	C355.359344,343.670044 350.710663,338.326904 345.718018,332.787872 
	C360.799683,329.292908 377.555115,338.140503 384.637054,353.324524 
	C391.822540,368.730560 387.451935,387.477051 374.184540,397.947662 
	C365.942444,404.452271 356.573822,407.050171 345.756592,405.582428 
z"/>
<path fill="#050402" opacity="1.000000" stroke="none" 
	d="
M316.869202,108.391273 
	C319.784973,105.637787 322.730164,104.010277 326.443817,105.951881 
	C330.026886,107.825211 330.785339,111.066116 330.764954,114.733994 
	C330.730957,120.847496 330.754974,126.961334 330.853516,133.534576 
	C330.663544,136.456421 331.170105,139.512543 329.886383,141.232162 
	C328.244690,143.431198 325.164795,145.766342 322.694977,145.776917 
	C320.487335,145.786362 316.418243,142.784302 316.354736,140.997818 
	C315.973633,130.281357 316.512054,119.532211 316.869202,108.391273 
z"/>
<path fill="#060503" opacity="1.000000" stroke="none" 
	d="
M320.657471,172.680695 
	C315.945740,169.470840 314.267578,163.635895 316.403290,159.031265 
	C318.743896,153.984863 326.641968,153.002045 328.939972,157.976395 
	C330.420959,161.182220 330.322052,165.734772 329.378784,169.269470 
	C328.443054,172.775864 324.663696,173.558945 320.657471,172.680695 
z"/>
<path fill="#040201" opacity="1.000000" stroke="none" 
	d="
M359.862366,349.312866 
	C364.099335,346.749054 367.975739,346.477570 371.090942,350.584930 
	C373.580475,353.867249 372.797607,357.736816 368.853851,361.607849 
	C366.495575,363.922668 363.905457,366.001312 360.881622,368.658905 
	C364.218048,371.866119 366.821442,374.384338 369.442444,376.884094 
	C372.588135,379.884186 373.727539,383.418945 371.194305,387.163177 
	C368.528961,391.102600 364.773651,391.519592 360.354858,389.065369 
	C357.163483,385.970612 354.310577,382.982910 350.648590,379.147888 
	C347.927795,382.119141 345.505249,385.006927 342.825989,387.632812 
	C338.982880,391.399384 334.541656,391.534607 331.403931,388.229675 
	C328.314606,384.975739 328.514130,380.990662 332.193024,377.200073 
	C334.732452,374.583588 337.503021,372.191406 341.109772,368.821136 
	C337.764038,365.800018 334.704102,363.307281 331.967926,360.499115 
	C328.395386,356.832581 328.401123,352.608917 331.651581,349.484863 
	C334.723389,346.532532 338.825775,346.560883 342.335693,349.877930 
	C345.107025,352.496948 347.593079,355.417877 351.466309,359.549225 
	C354.470490,355.931061 357.093628,352.771820 359.862366,349.312866 
z"/>
</svg>